P2
64 64
255
50 200 200 200 200 200 200 200 200 200 200 200 200 200 200 200 50 200 200 200 200 200 200 200 200 200 200 200 200 200 200 200 50 200 200 200 200 200 200 200 200 200 200 200 200 200 200 200 50 200 200 200 200 200 200 200 200 200 200 200 200 200 200 200 50 200 200 200 200 200 200 200 200 200 200 200 200 200 200 200 50 200 200 200 200 200 200 200 200 200 200 200 200 200 200 200 50 200 200 200 200 200 200 200 200 200 200 200 200 200 200 200 50 200 200 200 200 200 200 200 200 200 200 200 200 200 200 200 50 200 200 200 200 200 200 200 200 200 200 200 200 200 200 200 50 200 200 200 200 200 200 200 200 200 200 200 200 200 200 200 50 200 200 200 200 200 200 200 200 200 200 200 200 200 200 200 50 200 200 200 200 200 200 200 200 200 200 200 200 200 200 200 50 200 200 200 200 200 200 200 200 200 200 200 200 200 200 200 50 200 200 200 200 200 200 200 200 200 200 200 200 200 200 200 50 200 200 200 200 200 200 200 200 200 200 200 200 200 200 200 50 200 200 200 200 200 200 200 200 200 200 200 200 200 200 200 50 200 200 200 200 200 200 200 200 200 200 200 200 200 200 200 50 200 200 200 200 200 200 200 200 200 200 200 200 200 200 200 50 200 200 200 200 200 200 200 200 200 200 200 200 200 200 200 50 200 200 200 200 200 200 200 200 200 200 200 200 200 200 200 50 200 200 200 200 200 200 200 200 200 200 200 200 200 200 200 50 200 200 200 200 200 200 200 200 200 200 200 200 200 200 200 50 200 200 200 200 200 200 200 200 200 200 200 200 200 200 200 50 200 200 200 200 200 200 200 200 200 200 200 200 200 200 200 50 200 200 200 200 200 200 200 200 200 200 200 200 200 200 200 50 200 200 200 200 200 200 200 200 200 200 200 200 200 200 200 50 200 200 200 200 200 200 200 200 200 200 200 200 200 200 200 50 200 200 200 200 200 200 200 200 200 200 200 200 200 200 200 50 200 200 200 200 200 200 200 200 200 200 200 200 200 200 200 50 200 200 200 200 200 200 200 200 200 200 200 200 200 200 200 50 200 200 200 200 200 200 200 200 200 200 200 200 200 200 200 50 200 200 200 200 200 200 200 200 200 200 200 200 200 200 200 50 200 200 200 200 200 200 200 200 200 200 200 200 200 200 200 50 200 200 200 200 200 200 200 200 200 200 200 200 200 200 200 50 200 200 200 200 200 200 200 200 200 200 200 200 200 200 200 50 200 200 200 200 200 200 200 200 200 200 200 200 200 200 200 50 200 200 200 200 200 200 200 200 200 200 200 200 200 200 200 50 200 200 200 200 200 200 200 200 200 200 200 200 200 200 200 50 200 200 200 200 200 200 200 200 200 200 200 200 200 200 200 50 200 200 200 200 200 200 200 200 200 200 200 200 200 200 200 50 200 200 200 200 200 200 200 200 200 200 200 200 200 200 200 50 200 200 200 200 200 200 200 200 200 200 200 200 200 200 200 50 200 200 200 200 200 200 200 200 200 200 200 200 200 200 200 50 200 200 200 200 200 200 200 200 200 200 200 200 200 200 200 50 200 200 200 200 200 200 200 200 200 200 200 200 200 200 200 50 200 200 200 200 200 200 200 200 200 200 200 200 200 200 200 50 200 200 200 200 200 200 200 200 200 200 200 200 200 200 200 50 200 200 200 200 200 200 200 200 200 200 200 200 200 200 200 50 200 200 200 200 200 200 200 200 200 200 200 200 200 200 200 50 200 200 200 200 200 200 200 200 200 200 200 200 200 200 200 50 200 200 200 200 200 200 200 200 200 200 200 200 200 200 200 50 200 200 200 200 200 200 200 200 200 200 200 200 200 200 200 50 200 200 200 200 200 200 200 200 200 200 200 200 200 200 200 50 200 200 200 200 200 200 200 200 200 200 200 200 200 200 200 50 200 200 200 200 200 200 200 200 200 200 200 200 200 200 200 50 200 200 200 200 200 200 200 200 200 200 200 200 200 200 200 50 200 200 200 200 200 200 200 200 200 200 200 200 200 200 200 50 200 200 200 200 200 200 200 200 200 200 200 200 200 200 200 50 200 200 200 200 200 200 200 200 200 200 200 200 200 200 200 50 200 200 200 200 200 200 200 200 200 200 200 200 200 200 200 50 200 200 200 200 200 200 200 200 200 200 200 200 200 200 200 50 200 200 200 200 200 200 200 200 200 200 200 200 200 200 200 50 200 200 200 200 200 200 200 200 200 200 200 200 200 200 200 50 200 200 200 200 200 200 200 200 200 200 200 200 200 200 200 50 200 200 200 200 200 200 200 200 200 200 200 200 200 200 200 50 200 200 200 200 200 200 200 200 200 200 200 200 200 200 200 50 200 200 200 200 200 200 200 200 200 200 200 200 200 200 200 50 200 200 200 200 200 200 200 200 200 200 200 200 200 200 200 50 200 200 200 200 200 200 200 200 200 200 200 200 200 200 200 50 200 200 200 200 200 200 200 200 200 200 200 200 200 200 200 50 200 200 200 200 200 200 200 200 200 200 200 200 200 200 200 50 200 200 200 200 200 200 200 200 200 200 200 200 200 200 200 50 200 200 200 200 200 200 200 200 200 200 200 200 200 200 200 50 200 200 200 200 200 200 200 200 200 200 200 200 200 200 200 50 200 200 200 200 200 200 200 200 200 200 200 200 200 200 200 50 200 200 200 200 200 200 200 200 200 200 200 200 200 200 200 50 200 200 200 200 200 200 200 200 200 200 200 200 200 200 200 50 200 200 200 200 200 200 200 200 200 200 200 200 200 200 200 50 200 200 200 200 200 200 200 200 200 200 200 200 200 200 200 50 200 200 200 200 200 200 200 200 200 200 200 200 200 200 200 50 200 200 200 200 200 200 200 200 200 200 200 200 200 200 200 50 200 200 200 200 200 200 200 200 200 200 200 200 200 200 200 50 200 200 200 200 200 200 200 200 200 200 200 200 200 200 200 50 200 200 200 200 200 200 200 200 200 200 200 200 200 200 200 50 200 200 200 200 200 200 200 200 200 200 200 200 200 200 200 50 200 200 200 200 200 200 200 200 200 200 200 200 200 200 200 50 200 200 200 200 200 200 200 200 200 200 200 200 200 200 200 50 200 200 200 200 200 200 200 200 200 200 200 200 200 200 200 50 200 200 200 200 200 200 200 200 200 200 200 200 200 200 200 50 200 200 200 200 200 200 200 200 200 200 200 200 200 200 200 50 200 200 200 200 200 200 200 200 200 200 200 200 200 200 200 50 200 200 200 200 200 200 200 200 200 200 200 200 200 200 200 50 200 200 200 200 200 200 200 200 200 200 200 200 200 200 200 50 200 200 200 200 200 200 200 200 200 200 200 200 200 200 200 50 200 200 200 200 200 200 200 200 200 200 200 200 200 200 200 50 200 200 200 200 200 200 200 200 200 200 200 200 200 200 200 50 200 200 200 200 200 200 200 200 200 200 200 200 200 200 200 50 200 200 200 200 200 200 200 200 200 200 200 200 200 200 200 50 200 200 200 200 200 200 200 200 200 200 200 200 200 200 200 50 200 200 200 200 200 200 200 200 200 200 200 200 200 200 200 50 200 200 200 200 200 200 200 200 200 200 200 200 200 200 200 50 200 200 200 200 200 200 200 200 200 200 200 200 200 200 200 50 200 200 200 200 200 200 200 200 200 200 200 200 200 200 200 50 200 200 200 200 200 200 200 200 200 200 200 200 200 200 200 50 200 200 200 200 200 200 200 200 200 200 200 200 200 200 200 50 200 200 200 200 200 200 200 200 200 200 200 200 200 200 200 50 200 200 200 200 200 200 200 200 200 200 200 200 200 200 200 50 200 200 200 200 200 200 200 200 200 200 200 200 200 200 200 50 200 200 200 200 200 200 200 200 200 200 200 200 200 200 200 50 200 200 200 200 200 200 200 200 200 200 200 200 200 200 200 50 200 200 200 200 200 200 200 200 200 200 200 200 200 200 200 50 200 200 200 200 200 200 200 200 200 200 200 200 200 200 200 50 200 200 200 200 200 200 200 200 200 200 200 200 200 200 200 50 200 200 200 200 200 200 200 200 200 200 200 200 200 200 200 50 200 200 200 200 200 200 200 200 200 200 200 200 200 200 200 50 200 200 200 200 200 200 200 200 200 200 200 200 200 200 200 50 200 200 200 200 200 200 200 200 200 200 200 200 200 200 200 50 200 200 200 200 200 200 200 200 200 200 200 200 200 200 200 50 200 200 200 200 200 200 200 200 200 200 200 200 200 200 200 50 200 200 200 200 200 200 200 200 200 200 200 200 200 200 200 50 200 200 200 200 200 200 200 200 200 200 200 200 200 200 200 50 200 200 200 200 200 200 200 200 200 200 200 200 200 200 200 50 200 200 200 200 200 200 200 200 200 200 200 200 200 200 200 50 200 200 200 200 200 200 200 200 200 200 200 200 200 200 200 50 200 200 200 200 200 200 200 200 200 200 200 200 200 200 200 50 200 200 200 200 200 200 200 200 200 200 200 200 200 200 200 50 200 200 200 200 200 200 200 200 200 200 200 200 200 200 200 50 200 200 200 200 200 200 200 200 200 200 200 200 200 200 200 50 200 200 200 200 200 200 200 200 200 200 200 200 200 200 200 50 200 200 200 200 200 200 200 200 200 200 200 200 200 200 200 50 200 200 200 200 200 200 200 200 200 200 200 200 200 200 200 50 200 200 200 200 200 200 200 200 200 200 200 200 200 200 200 50 200 200 200 200 200 200 200 200 200 200 200 200 200 200 200 50 200 200 200 200 200 200 200 200 200 200 200 200 200 200 200 50 200 200 200 200 200 200 200 200 200 200 200 200 200 200 200 50 200 200 200 200 200 200 200 200 200 200 200 200 200 200 200 50 200 200 200 200 200 200 200 200 200 200 200 200 200 200 200 50 200 200 200 200 200 200 200 200 200 200 200 200 200 200 200 50 200 200 200 200 200 200 200 200 200 200 200 200 200 200 200 50 200 200 200 200 200 200 200 200 200 200 200 200 200 200 200 50 200 200 200 200 200 200 200 200 200 200 200 200 200 200 200 50 200 200 200 200 200 200 200 200 200 200 200 200 200 200 200 50 200 200 200 200 200 200 200 200 200 200 200 200 200 200 200 50 200 200 200 200 200 200 200 200 200 200 200 200 200 200 200 50 200 200 200 200 200 200 200 200 200 200 200 200 200 200 200 50 200 200 200 200 200 200 200 200 200 200 200 200 200 200 200 50 200 200 200 200 200 200 200 200 200 200 200 200 200 200 200 50 200 200 200 200 200 200 200 200 200 200 200 200 200 200 200 50 200 200 200 200 200 200 200 200 200 200 200 200 200 200 200 50 200 200 200 200 200 200 200 200 200 200 200 200 200 200 200 50 200 200 200 200 200 200 200 200 200 200 200 200 200 200 200 50 200 200 200 200 200 200 200 200 200 200 200 200 200 200 200 50 200 200 200 200 200 200 200 200 200 200 200 200 200 200 200 50 200 200 200 200 200 200 200 200 200 200 200 200 200 200 200 50 200 200 200 200 200 200 200 200 200 200 200 200 200 200 200 50 200 200 200 200 200 200 200 200 200 200 200 200 200 200 200 50 200 200 200 200 200 200 200 200 200 200 200 200 200 200 200 50 200 200 200 200 200 200 200 200 200 200 200 200 200 200 200 50 200 200 200 200 200 200 200 200 200 200 200 200 200 200 200 50 200 200 200 200 200 200 200 200 200 200 200 200 200 200 200 50 200 200 200 200 200 200 200 200 200 200 200 200 200 200 200 50 200 200 200 200 200 200 200 200 200 200 200 200 200 200 200 50 200 200 200 200 200 200 200 200 200 200 200 200 200 200 200 50 200 200 200 200 200 200 200 200 200 200 200 200 200 200 200 50 200 200 200 200 200 200 200 200 200 200 200 200 200 200 200 50 200 200 200 200 200 200 200 200 200 200 200 200 200 200 200 50 200 200 200 200 200 200 200 200 200 200 200 200 200 200 200 50 200 200 200 200 200 200 200 200 200 200 200 200 200 200 200 50 200 200 200 200 200 200 200 200 200 200 200 200 200 200 200 50 200 200 200 200 200 200 200 200 200 200 200 200 200 200 200 50 200 200 200 200 200 200 200 200 200 200 200 200 200 200 200 50 200 200 200 200 200 200 200 200 200 200 200 200 200 200 200 50 200 200 200 200 200 200 200 200 200 200 200 200 200 200 200 50 200 200 200 200 200 200 200 200 200 200 200 200 200 200 200 50 200 200 200 200 200 200 200 200 200 200 200 200 200 200 200 50 200 200 200 200 200 200 200 200 200 200 200 200 200 200 200 50 200 200 200 200 200 200 200 200 200 200 200 200 200 200 200 50 200 200 200 200 200 200 200 200 200 200 200 200 200 200 200 50 200 200 200 200 200 200 200 200 200 200 200 200 200 200 200 50 200 200 200 200 200 200 200 200 200 200 200 200 200 200 200 50 200 200 200 200 200 200 200 200 200 200 200 200 200 200 200 50 200 200 200 200 200 200 200 200 200 200 200 200 200 200 200 50 200 200 200 200 200 200 200 200 200 200 200 200 200 200 200 50 200 200 200 200 200 200 200 200 200 200 200 200 200 200 200 50 200 200 200 200 200 200 200 200 200 200 200 200 200 200 200 50 200 200 200 200 200 200 200 200 200 200 200 200 200 200 200 50 200 200 200 200 200 200 200 200 200 200 200 200 200 200 200 50 200 200 200 200 200 200 200 200 200 200 200 200 200 200 200 50 200 200 200 200 200 200 200 200 200 200 200 200 200 200 200 50 200 200 200 200 200 200 200 200 200 200 200 200 200 200 200 50 200 200 200 200 200 200 200 200 200 200 200 200 200 200 200 50 200 200 200 200 200 200 200 200 200 200 200 200 200 200 200 50 200 200 200 200 200 200 200 200 200 200 200 200 200 200 200 50 200 200 200 200 200 200 200 200 200 200 200 200 200 200 200 50 200 200 200 200 200 200 200 200 200 200 200 200 200 200 200 50 200 200 200 200 200 200 200 200 200 200 200 200 200 200 200 50 200 200 200 200 200 200 200 200 200 200 200 200 200 200 200 50 200 200 200 200 200 200 200 200 200 200 200 200 200 200 200 50 200 200 200 200 200 200 200 200 200 200 200 200 200 200 200 50 200 200 200 200 200 200 200 200 200 200 200 200 200 200 200 50 200 200 200 200 200 200 200 200 200 200 200 200 200 200 200 50 200 200 200 200 200 200 200 200 200 200 200 200 200 200 200 50 200 200 200 200 200 200 200 200 200 200 200 200 200 200 200 50 200 200 200 200 200 200 200 200 200 200 200 200 200 200 200 50 200 200 200 200 200 200 200 200 200 200 200 200 200 200 200 50 200 200 200 200 200 200 200 200 200 200 200 200 200 200 200 50 200 200 200 200 200 200 200 200 200 200 200 200 200 200 200 50 200 200 200 200 200 200 200 200 200 200 200 200 200 200 200 50 200 200 200 200 200 200 200 200 200 200 200 200 200 200 200 50 200 200 200 200 200 200 200 200 200 200 200 200 200 200 200 50 200 200 200 200 200 200 200 200 200 200 200 200 200 200 200 50 200 200 200 200 200 200 200 200 200 200 200 200 200 200 200 50 200 200 200 200 200 200 200 200 200 200 200 200 200 200 200 50 200 200 200 200 200 200 200 200 200 200 200 200 200 200 200 50 200 200 200 200 200 200 200 200 200 200 200 200 200 200 200 50 200 200 200 200 200 200 200 200 200 200 200 200 200 200 200 50 200 200 200 200 200 200 200 200 200 200 200 200 200 200 200 50 200 200 200 200 200 200 200 200 200 200 200 200 200 200 200 50 200 200 200 200 200 200 200 200 200 200 200 200 200 200 200 50 200 200 200 200 200 200 200 200 200 200 200 200 200 200 200 50 200 200 200 200 200 200 200 200 200 200 200 200 200 200 200 50 200 200 200 200 200 200 200 200 200 200 200 200 200 200 200 50 200 200 200 200 200 200 200 200 200 200 200 200 200 200 200 50 200 200 200 200 200 200 200 200 200 200 200 200 200 200 200 50 200 200 200 200 200 200 200 200 200 200 200 200 200 200 200 50 200 200 200 200 200 200 200 200 200 200 200 200 200 200 200 50 200 200 200 200 200 200 200 200 200 200 200 200 200 200 200 50 200 200 200 200 200 200 200 200 200 200 200 200 200 200 200 50 200 200 200 200 200 200 200 200 200 200 200 200 200 200 200 50 200 200 200 200 200 200 200 200 200 200 200 200 200 200 200 50 200 200 200 200 200 200 200 200 200 200 200 200 200 200 200 50 200 200 200 200 200 200 200 200 200 200 200 200 200 200 200 50 200 200 200 200 200 200 200 200 200 200 200 200 200 200 200 50 200 200 200 200 200 200 200 200 200 200 200 200 200 200 200 50 200 200 200 200 200 200 200 200 200 200 200 200 200 200 200 50 200 200 200 200 200 200 200 200 200 200 200 200 200 200 200 50 200 200 200 200 200 200 200 200 200 200 200 200 200 200 200 50 200 200 200 200 200 200 200 200 200 200 200 200 200 200 200 50 200 200 200 200 200 200 200 200 200 200 200 200 200 200 200 50 200 200 200 200 200 200 200 200 200 200 200 200 200 200 200 50 200 200 200 200 200 200 200 200 200 200 200 200 200 200 200 50 200 200 200 200 200 200 200 200 200 200 200 200 200 200 200 50 200 200 200 200 200 200 200 200 200 200 200 200 200 200 200 50 200 200 200 200 200 200 200 200 200 200 200 200 200 200 200 50 200 200 200 200 200 200 200 200 200 200 200 200 200 200 200 50 200 200 200 200 200 200 200 200 200 200 200 200 200 200 200 50 200 200 200 200 200 200 200 200 200 200 200 200 200 200 200 50 200 200 200 200 200 200 200 200 200 200 200 200 200 200 200 50 200 200 200 200 200 200 200 200 200 200 200 200 200 200 200 50 200 200 200 200 200 200 200 200 200 200 200 200 200 200 200 50 200 200 200 200 200 200 200 200 200 200 200 200 200 200 200 50 200 200 200 200 200 200 200 200 200 200 200 200 200 200 200 50 200 200 200 200 200 200 200 200 200 200 200 200 200 200 200 50 200 200 200 200 200 200 200 200 200 200 200 200 200 200 200 50 200 200 200 200 200 200 200 200 200 200 200 200 200 200 200 50 200 200 200 200 200 200 200 200 200 200 200 200 200 200 200
